<?xml version="1.0" encoding="UTF-8"?>
<!DOCTYPE svg PUBLIC "-//W3C//DTD SVG 1.1//EN" "http://www.w3.org/Graphics/SVG/1.1/DTD/svg11.dtd">
<svg xmlns="http://www.w3.org/2000/svg" version="1.1" width="301px" height="301px" style="shape-rendering:geometricPrecision; text-rendering:geometricPrecision; image-rendering:optimizeQuality; fill-rule:evenodd; clip-rule:evenodd" xmlns:xlink="http://www.w3.org/1999/xlink">
<g><path style="opacity:1" fill="#1f1c10" d="M 177.5,60.5 C 178.764,63.3049 178.764,66.1382 177.5,69C 177.945,70.4469 178.612,71.7803 179.5,73C 179.095,73.9454 178.428,74.6121 177.5,75C 180.909,76.1338 181.243,77.8004 178.5,80C 179.981,84.5901 181.648,89.0901 183.5,93.5C 182.833,93.5 182.167,93.5 181.5,93.5C 179.864,88.8898 177.864,84.5565 175.5,80.5C 175.5,80.1667 175.5,79.8333 175.5,79.5C 170.728,68.4915 165.394,57.8248 159.5,47.5C 158.758,45.0202 157.758,42.6869 156.5,40.5C 158.492,40.6715 160.158,40.0049 161.5,38.5C 163.818,39.9486 165.818,41.782 167.5,44C 167.043,44.414 166.709,44.914 166.5,45.5C 167.018,48.5081 168.518,50.8415 171,52.5C 171.658,55.2848 172.491,57.9514 173.5,60.5C 174.833,60.5 176.167,60.5 177.5,60.5 Z"/></g>
<g><path style="opacity:1" fill="#e4d833" d="M 159.5,47.5 C 165.394,57.8248 170.728,68.4915 175.5,79.5C 174.504,79.5858 173.671,79.2524 173,78.5C 170.994,71.1709 167.327,64.8375 162,59.5C 160.846,55.553 160.013,51.553 159.5,47.5 Z"/></g>
<g><path style="opacity:1" fill="#282206" d="M 126.5,59.5 C 122.13,69.5195 117.797,79.5195 113.5,89.5C 113.167,89.5 112.833,89.5 112.5,89.5C 112.389,88.8826 112.056,88.3826 111.5,88C 114.515,80.9748 117.515,73.9748 120.5,67C 120.05,65.7147 119.383,64.548 118.5,63.5C 120.91,61.6284 123.577,60.295 126.5,59.5 Z"/></g>
<g><path style="opacity:1" fill="#e4d938" d="M 126.5,59.5 C 126.833,59.5 127.167,59.5 127.5,59.5C 126.476,65.384 124.643,71.0506 122,76.5C 119.041,79.0982 117.707,82.4316 118,86.5C 117.683,88.3008 117.016,88.6341 116,87.5C 115.292,88.3805 114.458,89.0472 113.5,89.5C 117.797,79.5195 122.13,69.5195 126.5,59.5 Z"/></g>
<g><path style="opacity:0.141" fill="#544b4e" d="M 89.5,92.5 C 88.3064,93.7773 86.6397,94.4439 84.5,94.5C 79.1869,95.1952 73.8536,95.5285 68.5,95.5C 75.3267,94.1186 82.3267,93.1186 89.5,92.5 Z"/></g>
<g><path style="opacity:1" fill="#dcd23b" d="M 175.5,80.5 C 177.864,84.5565 179.864,88.8898 181.5,93.5C 182.733,97.0321 184.067,100.532 185.5,104C 193.067,104.09 200.4,104.924 207.5,106.5C 199.837,106.022 192.17,105.522 184.5,105C 182.115,102.774 180.949,99.941 181,96.5C 179.988,94.1358 178.655,92.8024 177,92.5C 176.499,88.4899 175.999,84.4899 175.5,80.5 Z"/></g>
<g><path style="opacity:0.14" fill="#5e5a5a" d="M 215.5,96.5 C 221.069,96.376 226.402,97.0427 231.5,98.5C 225.949,98.473 220.616,97.8063 215.5,96.5 Z"/></g>
<g><path style="opacity:0.059" fill="#70615f" d="M 68.5,95.5 C 52.5782,98.2672 36.5782,101.267 20.5,104.5C 36.0443,99.7259 52.0443,96.7259 68.5,95.5 Z"/></g>
<g><path style="opacity:1" fill="#2c2404" d="M 181.5,93.5 C 182.167,93.5 182.833,93.5 183.5,93.5C 184.929,96.3084 185.595,99.3084 185.5,102.5C 196.39,101.933 207.057,103.1 217.5,106C 230.434,106.097 243.1,107.597 255.5,110.5C 255.709,111.086 256.043,111.586 256.5,112C 259.833,112.333 263.167,112.667 266.5,113C 268.056,113.72 269.056,114.887 269.5,116.5C 266.888,115.629 264.221,114.963 261.5,114.5C 243.784,110.103 225.784,107.437 207.5,106.5C 200.4,104.924 193.067,104.09 185.5,104C 184.067,100.532 182.733,97.0321 181.5,93.5 Z"/></g>
<g><path style="opacity:1" fill="#e1d63d" d="M 112.5,89.5 C 112.833,89.5 113.167,89.5 113.5,89.5C 113.349,94.8066 111.682,99.4733 108.5,103.5C 92.2509,105.795 75.9176,107.129 59.5,107.5C 75.1781,104.07 91.1781,102.737 107.5,103.5C 108.885,99.062 110.552,94.7287 112.5,90.5C 112.5,90.1667 112.5,89.8333 112.5,89.5 Z"/></g>
<g><path style="opacity:1" fill="#fae908" d="M 159.5,47.5 C 160.013,51.553 160.846,55.553 162,59.5C 167.327,64.8375 170.994,71.1709 173,78.5C 173.671,79.2524 174.504,79.5858 175.5,79.5C 175.5,79.8333 175.5,80.1667 175.5,80.5C 175.999,84.4899 176.499,88.4899 177,92.5C 178.655,92.8024 179.988,94.1358 181,96.5C 180.949,99.941 182.115,102.774 184.5,105C 192.17,105.522 199.837,106.022 207.5,106.5C 210.927,107.141 214.26,108.308 217.5,110C 227.173,110.834 236.84,111.667 246.5,112.5C 246.5,113.5 246.5,114.5 246.5,115.5C 250.497,116.737 254.497,116.737 258.5,115.5C 264.182,117.259 264.515,119.426 259.5,122C 263.361,122.569 263.361,123.402 259.5,124.5C 259.833,125.167 260.167,125.833 260.5,126.5C 259.147,127.524 258.48,128.857 258.5,130.5C 256.857,130.48 255.524,131.147 254.5,132.5C 253.833,132.167 253.167,131.833 252.5,131.5C 251.548,133.045 251.215,134.712 251.5,136.5C 246.964,138.062 242.964,140.395 239.5,143.5C 239.5,145.167 239.5,146.833 239.5,148.5C 238.5,148.5 237.5,148.5 236.5,148.5C 236.5,149.833 236.5,151.167 236.5,152.5C 235.167,153.5 233.833,154.5 232.5,155.5C 230.857,155.48 229.524,156.147 228.5,157.5C 227.914,157.291 227.414,156.957 227,156.5C 225.362,159.796 222.862,162.13 219.5,163.5C 218.754,164.736 218.421,166.07 218.5,167.5C 215.031,166.887 213.031,168.221 212.5,171.5C 211.5,171.5 210.5,171.5 209.5,171.5C 209.5,173.167 209.5,174.833 209.5,176.5C 209.5,177.167 209.5,177.833 209.5,178.5C 211.339,190.217 213.506,201.884 216,213.5C 217.082,215.618 218.249,217.618 219.5,219.5C 219.5,221.167 219.5,222.833 219.5,224.5C 220.63,235.394 220.63,246.228 219.5,257C 217.167,257.667 214.833,257.667 212.5,257C 207.759,254.754 203.426,251.92 199.5,248.5C 196.904,249.213 194.237,249.213 191.5,248.5C 176.302,241.231 161.636,232.897 147.5,223.5C 144.114,225.193 140.78,226.86 137.5,228.5C 134.784,228.678 132.117,229.178 129.5,230C 129.833,230.333 130.167,230.667 130.5,231C 124.703,234.709 118.703,238.042 112.5,241C 111.748,241.671 111.414,242.504 111.5,243.5C 109.118,244.351 107.118,245.684 105.5,247.5C 103.046,248.227 100.713,249.227 98.5,250.5C 90.8065,252.343 84.4732,255.51 79.5,260C 77.3853,260.557 75.3853,261.391 73.5,262.5C 72.914,262.291 72.414,261.957 72,261.5C 71.3333,257.833 71.3333,254.167 72,250.5C 73.7461,247.166 74.9128,243.666 75.5,240C 75.7082,235.063 75.7082,230.063 75.5,225C 77.0931,219.367 77.9264,213.534 78,207.5C 82.2799,197.267 83.9465,186.6 83,175.5C 80.2389,174.501 78.9056,172.501 79,169.5C 78.6667,169.833 78.3333,170.167 78,170.5C 73.7269,166.646 69.5602,162.646 65.5,158.5C 64.8333,156.5 64.1667,154.5 63.5,152.5C 60.9439,151.949 58.6106,150.949 56.5,149.5C 56.1744,147.49 55.8411,145.49 55.5,143.5C 53.2534,142.626 50.9201,142.292 48.5,142.5C 48.3385,140.176 47.1718,138.509 45,137.5C 43.8173,138.731 42.6507,138.731 41.5,137.5C 38.8401,134.412 36.6734,131.079 35,127.5C 34.0138,128.171 32.8471,128.171 31.5,127.5C 30.8688,122.886 28.3688,119.886 24,118.5C 23.3162,117.216 23.4829,116.049 24.5,115C 32.7108,113.509 41.7108,112.176 51.5,111C 53.9096,110.4 55.9096,109.234 57.5,107.5C 58.1667,107.5 58.8333,107.5 59.5,107.5C 75.9176,107.129 92.2509,105.795 108.5,103.5C 111.682,99.4733 113.349,94.8066 113.5,89.5C 114.458,89.0472 115.292,88.3805 116,87.5C 117.016,88.6341 117.683,88.3008 118,86.5C 117.707,82.4316 119.041,79.0982 122,76.5C 124.643,71.0506 126.476,65.384 127.5,59.5C 128.376,59.6309 129.043,59.2975 129.5,58.5C 132.087,54.0028 134.087,49.3361 135.5,44.5C 136.5,44.5 137.5,44.5 138.5,44.5C 138.798,41.7354 139.798,39.2354 141.5,37C 143.367,36.2888 144.867,36.7888 146,38.5C 147.054,36.2464 148.554,35.913 150.5,37.5C 152.173,42.1663 155.173,45.4996 159.5,47.5 Z"/></g>
<g><path style="opacity:1" fill="#2b2306" d="M 112.5,90.5 C 110.552,94.7287 108.885,99.062 107.5,103.5C 91.1781,102.737 75.1781,104.07 59.5,107.5C 58.8333,107.5 58.1667,107.5 57.5,107.5C 45.0372,109.193 32.7039,111.526 20.5,114.5C 23.0096,119.687 26.6763,124.021 31.5,127.5C 33.1153,130.45 35.1153,133.116 37.5,135.5C 35.4986,136.41 34.1653,135.577 33.5,133C 32.2161,132.316 31.0495,132.483 30,133.5C 28.4571,131.622 26.6238,130.122 24.5,129C 25.428,128.612 26.0946,127.945 26.5,127C 24.9946,124.161 22.8279,121.995 20,120.5C 18.3695,118.045 18.2028,115.545 19.5,113C 24.7869,111.763 30.1203,110.429 35.5,109C 42.1776,109.154 48.5109,107.821 54.5,105C 69.8776,103.569 85.211,102.069 100.5,100.5C 99.9862,98.4884 99.8195,96.4884 100,94.5C 101.356,95.3802 102.856,95.7135 104.5,95.5C 104.67,96.8221 104.337,97.9887 103.5,99C 105.108,99.658 106.275,99.158 107,97.5C 107.29,95.0481 107.956,92.7148 109,90.5C 110.145,89.3157 111.312,89.3157 112.5,90.5 Z"/></g>
<g><path style="opacity:1" fill="#201d19" d="M 177.5,60.5 C 183.291,71.3315 188.624,82.4981 193.5,94C 201.03,94.4008 208.363,95.2342 215.5,96.5C 220.616,97.8063 225.949,98.473 231.5,98.5C 245.024,99.9047 258.358,102.405 271.5,106C 279.021,108.536 281.854,113.702 280,121.5C 273.482,129.68 266.648,137.513 259.5,145C 258.906,145.464 258.239,145.631 257.5,145.5C 256.448,145.351 255.448,145.517 254.5,146C 255.696,146.654 255.696,147.154 254.5,147.5C 253.833,144.833 252.167,143.167 249.5,142.5C 255.543,136.491 261.543,130.491 267.5,124.5C 268.562,122.978 269.229,121.312 269.5,119.5C 270.833,118.5 270.833,117.5 269.5,116.5C 269.056,114.887 268.056,113.72 266.5,113C 263.167,112.667 259.833,112.333 256.5,112C 256.043,111.586 255.709,111.086 255.5,110.5C 243.1,107.597 230.434,106.097 217.5,106C 207.057,103.1 196.39,101.933 185.5,102.5C 185.595,99.3084 184.929,96.3084 183.5,93.5C 181.648,89.0901 179.981,84.5901 178.5,80C 181.243,77.8004 180.909,76.1338 177.5,75C 178.428,74.6121 179.095,73.9454 179.5,73C 178.612,71.7803 177.945,70.4469 177.5,69C 178.764,66.1382 178.764,63.3049 177.5,60.5 Z"/></g>
<g><path style="opacity:1" fill="#e1d737" d="M 57.5,107.5 C 55.9096,109.234 53.9096,110.4 51.5,111C 41.7108,112.176 32.7108,113.509 24.5,115C 23.4829,116.049 23.3162,117.216 24,118.5C 28.3688,119.886 30.8688,122.886 31.5,127.5C 26.6763,124.021 23.0096,119.687 20.5,114.5C 32.7039,111.526 45.0372,109.193 57.5,107.5 Z"/></g>
<g><path style="opacity:1" fill="#c1b848" d="M 261.5,114.5 C 264.221,114.963 266.888,115.629 269.5,116.5C 270.833,117.5 270.833,118.5 269.5,119.5C 269.167,119.5 268.833,119.5 268.5,119.5C 268.631,118.624 268.298,117.957 267.5,117.5C 265.22,116.864 263.22,115.864 261.5,114.5 Z"/></g>
<g><path style="opacity:1" fill="#ede12e" d="M 207.5,106.5 C 225.784,107.437 243.784,110.103 261.5,114.5C 263.22,115.864 265.22,116.864 267.5,117.5C 268.298,117.957 268.631,118.624 268.5,119.5C 265.391,123.397 262.057,127.064 258.5,130.5C 258.48,128.857 259.147,127.524 260.5,126.5C 260.167,125.833 259.833,125.167 259.5,124.5C 263.361,123.402 263.361,122.569 259.5,122C 264.515,119.426 264.182,117.259 258.5,115.5C 254.497,116.737 250.497,116.737 246.5,115.5C 246.5,114.5 246.5,113.5 246.5,112.5C 236.84,111.667 227.173,110.834 217.5,110C 214.26,108.308 210.927,107.141 207.5,106.5 Z"/></g>
<g><path style="opacity:1" fill="#e1d631" d="M 175.5,165.5 C 174.415,174.07 170.248,175.737 163,170.5C 162.867,167.475 161.867,164.808 160,162.5C 158.541,149.865 158.208,137.198 159,124.5C 162.322,122.855 163.822,120.188 163.5,116.5C 167.605,116.234 171.605,116.734 175.5,118C 176.207,120.52 177.04,123.02 178,125.5C 178.833,138.18 178.666,150.846 177.5,163.5C 176.818,164.243 176.151,164.909 175.5,165.5 Z"/></g>
<g><path style="opacity:1" fill="#332904" d="M 130.5,163.5 C 130.672,164.492 130.338,165.158 129.5,165.5C 129.702,155.836 130.035,146.336 130.5,137C 129.423,136.53 128.423,136.697 127.5,137.5C 127.5,137.167 127.5,136.833 127.5,136.5C 127.5,136.167 127.5,135.833 127.5,135.5C 130.856,129.673 129.856,124.673 124.5,120.5C 123.5,121 122.5,121.5 121.5,122C 118.498,127.783 118.831,133.283 122.5,138.5C 121.061,139.509 119.728,139.176 118.5,137.5C 118.167,139.333 117.833,141.167 117.5,143C 118.071,149.494 118.571,155.994 119,162.5C 120.236,167.571 123.402,169.571 128.5,168.5C 128.5,168.833 128.5,169.167 128.5,169.5C 125.365,172.347 122.532,172.014 120,168.5C 114.978,153.717 114.311,138.717 118,123.5C 122.841,115.285 127.175,115.618 131,124.5C 133.024,137.533 132.858,150.533 130.5,163.5 Z"/></g>
<g><path style="opacity:1" fill="#2a2414" d="M 268.5,119.5 C 268.833,119.5 269.167,119.5 269.5,119.5C 269.229,121.312 268.562,122.978 267.5,124.5C 261.543,130.491 255.543,136.491 249.5,142.5C 252.167,143.167 253.833,144.833 254.5,147.5C 255.696,147.154 255.696,146.654 254.5,146C 255.448,145.517 256.448,145.351 257.5,145.5C 257.631,146.239 257.464,146.906 257,147.5C 254.914,149.437 252.748,151.104 250.5,152.5C 249.761,152.631 249.094,152.464 248.5,152C 249.38,150.644 249.714,149.144 249.5,147.5C 242.05,149.978 235.883,154.311 231,160.5C 230.617,159.944 230.117,159.611 229.5,159.5C 230.5,158.167 231.5,156.833 232.5,155.5C 233.833,154.5 235.167,153.5 236.5,152.5C 244.167,145.5 251.5,138.167 258.5,130.5C 262.057,127.064 265.391,123.397 268.5,119.5 Z"/></g>
<g><path style="opacity:1" fill="#dbd135" d="M 258.5,130.5 C 251.5,138.167 244.167,145.5 236.5,152.5C 236.5,151.167 236.5,149.833 236.5,148.5C 237.5,148.5 238.5,148.5 239.5,148.5C 239.5,146.833 239.5,145.167 239.5,143.5C 242.964,140.395 246.964,138.062 251.5,136.5C 251.215,134.712 251.548,133.045 252.5,131.5C 253.167,131.833 253.833,132.167 254.5,132.5C 255.524,131.147 256.857,130.48 258.5,130.5 Z"/></g>
<g><path style="opacity:1" fill="#1c1c11" d="M 129.5,165.5 C 129.443,166.609 129.11,167.609 128.5,168.5C 123.402,169.571 120.236,167.571 119,162.5C 118.571,155.994 118.071,149.494 117.5,143C 117.833,141.167 118.167,139.333 118.5,137.5C 119.728,139.176 121.061,139.509 122.5,138.5C 124.292,138.634 125.958,138.301 127.5,137.5C 128.423,136.697 129.423,136.53 130.5,137C 130.035,146.336 129.702,155.836 129.5,165.5 Z"/></g>
<g><path style="opacity:1" fill="#2b2204" d="M 175.5,165.5 C 171.71,173.402 167.877,173.402 164,165.5C 161.56,153.621 160.893,141.621 162,129.5C 162.26,123.957 164.76,119.957 169.5,117.5C 171.697,117.848 173.53,118.848 175,120.5C 178.086,135.45 178.253,150.45 175.5,165.5 Z"/></g>
<g><path style="opacity:1" fill="#1d1a16" d="M 163.5,138.5 C 164.531,139.355 165.697,140.022 167,140.5C 169.651,140.091 172.484,139.591 175.5,139C 175.383,146.66 174.717,154.493 173.5,162.5C 172.217,170.386 169.717,171.053 166,164.5C 164.192,155.932 163.359,147.265 163.5,138.5 Z"/></g>
<g><path style="opacity:1" fill="#e3d74a" d="M 167.5,122.5 C 170.936,119.67 173.103,120.67 174,125.5C 174.738,129.261 174.405,132.928 173,136.5C 170.16,139.371 167.826,139.037 166,135.5C 165.333,131.833 165.333,128.167 166,124.5C 166.278,123.584 166.778,122.918 167.5,122.5 Z"/></g>
<g><path style="opacity:1" fill="#f8e814" d="M 167.5,122.5 C 169.144,122.286 170.644,122.62 172,123.5C 172.825,127.211 172.659,130.878 171.5,134.5C 167.57,136.247 165.903,134.914 166.5,130.5C 166.837,127.824 167.17,125.157 167.5,122.5 Z"/></g>
<g><path style="opacity:1" fill="#ebdf37" d="M 130.5,163.5 C 132.858,150.533 133.024,137.533 131,124.5C 127.175,115.618 122.841,115.285 118,123.5C 114.311,138.717 114.978,153.717 120,168.5C 122.532,172.014 125.365,172.347 128.5,169.5C 128.586,170.496 128.252,171.329 127.5,172C 125.5,172.667 123.5,172.667 121.5,172C 120.271,170.471 118.771,169.304 117,168.5C 115.49,165.61 113.99,162.776 112.5,160C 113.32,150.577 113.82,141.077 114,131.5C 114.667,128.167 115.333,124.833 116,121.5C 118.172,120.491 119.338,118.824 119.5,116.5C 122.187,116.336 124.854,116.503 127.5,117C 130.293,120.081 132.46,123.581 134,127.5C 134.914,138.571 134.414,149.571 132.5,160.5C 132.36,162.03 131.693,163.03 130.5,163.5 Z"/></g>
<g><path style="opacity:1" fill="#f5e81b" d="M 127.5,135.5 C 127.5,135.833 127.5,136.167 127.5,136.5C 122.106,137.272 120.106,134.938 121.5,129.5C 121.667,127.5 121.833,125.5 122,123.5C 123.938,122.14 125.604,122.473 127,124.5C 127.499,128.152 127.665,131.818 127.5,135.5 Z"/></g>
<g><path style="opacity:1" fill="#dad145" d="M 127.5,135.5 C 127.665,131.818 127.499,128.152 127,124.5C 125.604,122.473 123.938,122.14 122,123.5C 121.833,125.5 121.667,127.5 121.5,129.5C 120.106,134.938 122.106,137.272 127.5,136.5C 127.5,136.833 127.5,137.167 127.5,137.5C 125.958,138.301 124.292,138.634 122.5,138.5C 118.831,133.283 118.498,127.783 121.5,122C 122.5,121.5 123.5,121 124.5,120.5C 129.856,124.673 130.856,129.673 127.5,135.5 Z"/></g>
<g><path style="opacity:1" fill="#ebdf31" d="M 31.5,127.5 C 32.8471,128.171 34.0138,128.171 35,127.5C 36.6734,131.079 38.8401,134.412 41.5,137.5C 42.6507,138.731 43.8173,138.731 45,137.5C 47.1718,138.509 48.3385,140.176 48.5,142.5C 50.9201,142.292 53.2534,142.626 55.5,143.5C 55.8411,145.49 56.1744,147.49 56.5,149.5C 58.6106,150.949 60.9439,151.949 63.5,152.5C 64.1667,154.5 64.8333,156.5 65.5,158.5C 69.5602,162.646 73.7269,166.646 78,170.5C 78.3333,170.167 78.6667,169.833 79,169.5C 78.9056,172.501 80.2389,174.501 83,175.5C 83.9465,186.6 82.2799,197.267 78,207.5C 77.9264,213.534 77.0931,219.367 75.5,225C 75.7082,230.063 75.7082,235.063 75.5,240C 74.9128,243.666 73.7461,247.166 72,250.5C 71.3333,254.167 71.3333,257.833 72,261.5C 72.414,261.957 72.914,262.291 73.5,262.5C 75.3853,261.391 77.3853,260.557 79.5,260C 84.4732,255.51 90.8065,252.343 98.5,250.5C 98.5,251.167 98.1667,251.5 97.5,251.5C 89.8604,255.654 82.1937,259.821 74.5,264C 72.8659,264.494 71.1992,264.66 69.5,264.5C 70.2564,235.627 74.5898,207.294 82.5,179.5C 82.3333,178.833 82.1667,178.167 82,177.5C 78.3756,174.611 74.8756,171.611 71.5,168.5C 60.0399,157.474 48.7066,146.474 37.5,135.5C 35.1153,133.116 33.1153,130.45 31.5,127.5 Z"/></g>
<g><path style="opacity:1" fill="#201c18" d="M 177.5,60.5 C 176.167,60.5 174.833,60.5 173.5,60.5C 172.491,57.9514 171.658,55.2848 171,52.5C 168.518,50.8415 167.018,48.5081 166.5,45.5C 166.709,44.914 167.043,44.414 167.5,44C 165.818,41.782 163.818,39.9486 161.5,38.5C 160.158,40.0049 158.492,40.6715 156.5,40.5C 153.522,36.5566 151.022,32.2232 149,27.5C 148.163,25.9926 146.996,25.4926 145.5,26C 138.839,36.8227 132.839,47.9894 127.5,59.5C 127.167,59.5 126.833,59.5 126.5,59.5C 123.577,60.295 120.91,61.6284 118.5,63.5C 119.383,64.548 120.05,65.7147 120.5,67C 117.515,73.9748 114.515,80.9748 111.5,88C 112.056,88.3826 112.389,88.8826 112.5,89.5C 112.5,89.8333 112.5,90.1667 112.5,90.5C 111.312,89.3157 110.145,89.3157 109,90.5C 107.956,92.7148 107.29,95.0481 107,97.5C 106.275,99.158 105.108,99.658 103.5,99C 104.337,97.9887 104.67,96.8221 104.5,95.5C 102.856,95.7135 101.356,95.3802 100,94.5C 99.8195,96.4884 99.9862,98.4884 100.5,100.5C 85.211,102.069 69.8776,103.569 54.5,105C 48.5109,107.821 42.1776,109.154 35.5,109C 30.1203,110.429 24.7869,111.763 19.5,113C 18.2028,115.545 18.3695,118.045 20,120.5C 22.8279,121.995 24.9946,124.161 26.5,127C 26.0946,127.945 25.428,128.612 24.5,129C 26.6238,130.122 28.4571,131.622 30,133.5C 31.0495,132.483 32.2161,132.316 33.5,133C 34.1653,135.577 35.4986,136.41 37.5,135.5C 48.7066,146.474 60.0399,157.474 71.5,168.5C 72.449,170.737 73.1156,173.071 73.5,175.5C 75.9711,175.233 77.6378,176.233 78.5,178.5C 77.1244,185.465 75.9577,192.465 75,199.5C 74.3333,200.833 73.6667,200.833 73,199.5C 72.3257,212.839 70.6591,226.172 68,239.5C 67.6562,246.679 67.1562,253.845 66.5,261C 66.913,265.883 69.5797,267.883 74.5,267C 82.9177,262.216 90.251,257.883 96.5,254C 97.2524,253.329 97.5858,252.496 97.5,251.5C 98.1667,251.5 98.5,251.167 98.5,250.5C 100.713,249.227 103.046,248.227 105.5,247.5C 109.596,247.637 112.929,246.137 115.5,243C 118.167,242 120.833,241 123.5,240C 126.228,237.608 129.228,235.608 132.5,234C 133.252,233.329 133.586,232.496 133.5,231.5C 134.117,231.611 134.617,231.944 135,232.5C 139.543,229.895 144.209,227.562 149,225.5C 150.88,227.953 153.213,229.953 156,231.5C 155.591,233.225 155.758,234.892 156.5,236.5C 158.467,237.682 159.8,237.015 160.5,234.5C 162.167,235.333 163.833,236.167 165.5,237C 165.167,237.333 164.833,237.667 164.5,238C 165.793,238.49 167.127,238.657 168.5,238.5C 169.724,244.081 173.057,246.414 178.5,245.5C 177.256,247.133 177.756,248.133 180,248.5C 181.789,247.591 183.623,247.424 185.5,248C 185.982,249.008 186.148,250.175 186,251.5C 189.064,252.899 191.064,255.232 192,258.5C 192.483,257.552 192.649,256.552 192.5,255.5C 194.857,255.337 197.19,255.503 199.5,256C 202.5,261.054 206.834,262.887 212.5,261.5C 213.167,261.833 213.833,262.167 214.5,262.5C 213.271,263.281 211.938,263.781 210.5,264C 214.446,265.306 218.112,267.139 221.5,269.5C 226.046,265.865 227.546,261.199 226,255.5C 225.617,256.056 225.117,256.389 224.5,256.5C 224.321,231.742 220.654,207.575 213.5,184C 213.164,182.97 212.497,182.47 211.5,182.5C 211.011,181.005 210.345,179.671 209.5,178.5C 209.5,177.833 209.5,177.167 209.5,176.5C 216.167,170.833 222.833,165.167 229.5,159.5C 230.117,159.611 230.617,159.944 231,160.5C 235.883,154.311 242.05,149.978 249.5,147.5C 249.714,149.144 249.38,150.644 248.5,152C 249.094,152.464 249.761,152.631 250.5,152.5C 241.3,162.534 231.633,172.034 221.5,181C 229.647,209.356 233.48,238.189 233,267.5C 231.169,270.839 228.335,272.839 224.5,273.5C 207.216,267.793 190.549,260.627 174.5,252C 165.353,246.68 156.187,241.513 147,236.5C 123.877,248.816 100.71,261.316 77.5,274C 65.2717,277.383 58.9384,272.716 58.5,260C 60.3535,233.546 64.6869,207.546 71.5,182C 49.3333,163.833 29.1667,143.667 11,121.5C 6.33953,111.489 9.5062,105.822 20.5,104.5C 36.5782,101.267 52.5782,98.2672 68.5,95.5C 73.8536,95.5285 79.1869,95.1952 84.5,94.5C 86.6397,94.4439 88.3064,93.7773 89.5,92.5C 92.8499,92.665 96.1832,92.4983 99.5,92C 108.087,73.2558 117.254,54.7558 127,36.5C 130.75,29.9979 134.75,23.6645 139,17.5C 145.382,12.9231 151.049,13.5898 156,19.5C 164.247,32.6634 171.414,46.3301 177.5,60.5 Z"/></g>
<g><path style="opacity:1" fill="#211e0c" d="M 191.5,248.5 C 201.123,253.158 210.79,257.825 220.5,262.5C 221.568,263.434 222.901,263.768 224.5,263.5C 224.5,261.167 224.5,258.833 224.5,256.5C 225.117,256.389 225.617,256.056 226,255.5C 227.546,261.199 226.046,265.865 221.5,269.5C 218.112,267.139 214.446,265.306 210.5,264C 211.938,263.781 213.271,263.281 214.5,262.5C 213.833,262.167 213.167,261.833 212.5,261.5C 206.834,262.887 202.5,261.054 199.5,256C 197.19,255.503 194.857,255.337 192.5,255.5C 192.649,256.552 192.483,257.552 192,258.5C 191.064,255.232 189.064,252.899 186,251.5C 186.148,250.175 185.982,249.008 185.5,248C 183.623,247.424 181.789,247.591 180,248.5C 177.756,248.133 177.256,247.133 178.5,245.5C 173.057,246.414 169.724,244.081 168.5,238.5C 167.127,238.657 165.793,238.49 164.5,238C 164.833,237.667 165.167,237.333 165.5,237C 163.833,236.167 162.167,235.333 160.5,234.5C 159.8,237.015 158.467,237.682 156.5,236.5C 155.758,234.892 155.591,233.225 156,231.5C 153.213,229.953 150.88,227.953 149,225.5C 144.209,227.562 139.543,229.895 135,232.5C 134.617,231.944 134.117,231.611 133.5,231.5C 134.833,230.5 136.167,229.5 137.5,228.5C 140.78,226.86 144.114,225.193 147.5,223.5C 161.636,232.897 176.302,241.231 191.5,248.5 Z"/></g>
<g><path style="opacity:1" fill="#ede032" d="M 219.5,224.5 C 221.136,228.21 221.802,232.21 221.5,236.5C 221.376,242.069 222.043,247.402 223.5,252.5C 223.5,255.833 223.5,259.167 223.5,262.5C 222.5,262.5 221.5,262.5 220.5,262.5C 210.79,257.825 201.123,253.158 191.5,248.5C 194.237,249.213 196.904,249.213 199.5,248.5C 203.426,251.92 207.759,254.754 212.5,257C 214.833,257.667 217.167,257.667 219.5,257C 220.63,246.228 220.63,235.394 219.5,224.5 Z"/></g>
<g><path style="opacity:1" fill="#a2962d" d="M 221.5,236.5 C 222.806,241.616 223.473,246.949 223.5,252.5C 222.043,247.402 221.376,242.069 221.5,236.5 Z"/></g>
<g><path style="opacity:1" fill="#2d2504" d="M 133.5,231.5 C 133.586,232.496 133.252,233.329 132.5,234C 129.228,235.608 126.228,237.608 123.5,240C 120.833,241 118.167,242 115.5,243C 112.929,246.137 109.596,247.637 105.5,247.5C 107.118,245.684 109.118,244.351 111.5,243.5C 118.86,239.488 126.194,235.488 133.5,231.5 Z"/></g>
<g><path style="opacity:1" fill="#d6cc44" d="M 137.5,228.5 C 136.167,229.5 134.833,230.5 133.5,231.5C 126.194,235.488 118.86,239.488 111.5,243.5C 111.414,242.504 111.748,241.671 112.5,241C 118.703,238.042 124.703,234.709 130.5,231C 130.167,230.667 129.833,230.333 129.5,230C 132.117,229.178 134.784,228.678 137.5,228.5 Z"/></g>
<g><path style="opacity:1" fill="#dfd335" d="M 209.5,178.5 C 210.345,179.671 211.011,181.005 211.5,182.5C 214.955,194.654 217.622,206.988 219.5,219.5C 218.249,217.618 217.082,215.618 216,213.5C 213.506,201.884 211.339,190.217 209.5,178.5 Z"/></g>
<g><path style="opacity:1" fill="#2b2504" d="M 211.5,182.5 C 212.497,182.47 213.164,182.97 213.5,184C 220.654,207.575 224.321,231.742 224.5,256.5C 224.5,258.833 224.5,261.167 224.5,263.5C 222.901,263.768 221.568,263.434 220.5,262.5C 221.5,262.5 222.5,262.5 223.5,262.5C 223.5,259.167 223.5,255.833 223.5,252.5C 223.473,246.949 222.806,241.616 221.5,236.5C 221.802,232.21 221.136,228.21 219.5,224.5C 219.5,222.833 219.5,221.167 219.5,219.5C 217.622,206.988 214.955,194.654 211.5,182.5 Z"/></g>
<g><path style="opacity:1" fill="#e6dc37" d="M 232.5,155.5 C 231.5,156.833 230.5,158.167 229.5,159.5C 222.833,165.167 216.167,170.833 209.5,176.5C 209.5,174.833 209.5,173.167 209.5,171.5C 210.5,171.5 211.5,171.5 212.5,171.5C 213.031,168.221 215.031,166.887 218.5,167.5C 218.421,166.07 218.754,164.736 219.5,163.5C 222.862,162.13 225.362,159.796 227,156.5C 227.414,156.957 227.914,157.291 228.5,157.5C 229.524,156.147 230.857,155.48 232.5,155.5 Z"/></g>
<g><path style="opacity:1" fill="#ebdf33" d="M 156.5,40.5 C 157.758,42.6869 158.758,45.0202 159.5,47.5C 155.173,45.4996 152.173,42.1663 150.5,37.5C 148.554,35.913 147.054,36.2464 146,38.5C 144.867,36.7888 143.367,36.2888 141.5,37C 139.798,39.2354 138.798,41.7354 138.5,44.5C 137.5,44.5 136.5,44.5 135.5,44.5C 134.087,49.3361 132.087,54.0028 129.5,58.5C 129.043,59.2975 128.376,59.6309 127.5,59.5C 132.839,47.9894 138.839,36.8227 145.5,26C 146.996,25.4926 148.163,25.9926 149,27.5C 151.022,32.2232 153.522,36.5566 156.5,40.5 Z"/></g>
<g><path style="opacity:1" fill="#282106" d="M 71.5,168.5 C 74.8756,171.611 78.3756,174.611 82,177.5C 82.1667,178.167 82.3333,178.833 82.5,179.5C 74.5898,207.294 70.2564,235.627 69.5,264.5C 71.1992,264.66 72.8659,264.494 74.5,264C 82.1937,259.821 89.8604,255.654 97.5,251.5C 97.5858,252.496 97.2524,253.329 96.5,254C 90.251,257.883 82.9177,262.216 74.5,267C 69.5797,267.883 66.913,265.883 66.5,261C 67.1562,253.845 67.6562,246.679 68,239.5C 70.6591,226.172 72.3257,212.839 73,199.5C 73.6667,200.833 74.3333,200.833 75,199.5C 75.9577,192.465 77.1244,185.465 78.5,178.5C 77.6378,176.233 75.9711,175.233 73.5,175.5C 73.1156,173.071 72.449,170.737 71.5,168.5 Z"/></g>
</svg>
